# xmcd
#
# Track frame offsets:
# 150
# 25764
# 42797
# 68045
# 89332
# 116154
# 134917
# 159274
# 182957
# 206161
# 224919
# 250324
# 267168
# 292367
# 313481
# 331888
#
# Disc length: 4731 seconds
#
#
# Revision: 0
# Processed by: cddbd v1.5.2PL0 Copyright (c) Steve Scherf et al.
# Submitted via: FreeRIP 2.944 
#
DISCID=0b127910
DTITLE=SILVAN SANTOS - é hoje
DYEAR=1900
DGENRE=GOSPEL
TTITLE0=É HOJE
TTITLE1=MINHA BENÇÃO
TTITLE2=UM HERÓI DE DEUS
TTITLE3=DIA DE SOL
TTITLE4=TOCOU
TTITLE5=AMEL
TTITLE6=CHORA
TTITLE7=UM AMIGO
TTITLE8=SAUDADE DO SERTÃO
TTITLE9=CARAVANA DO AMOR
TTITLE10=PLAY BACK 01
TTITLE11=PLAY BACK 02
TTITLE12=PLAY BACK 03
TTITLE13=PLAY BACK 04
TTITLE14=PLAY BACK 05
TTITLE15=PLAY BACK 06
EXTD=S
EXTT0=
EXTT1=
EXTT2=
EXTT3=
EXTT4=
EXTT5=
EXTT6=
EXTT7=
EXTT8=
EXTT9=
EXTT10=
EXTT11=
EXTT12=
EXTT13=
EXTT14=
EXTT15=
PLAYORDER=
